<?xml version="1.0" encoding="UTF-8"?>
<!DOCTYPE svg PUBLIC "-//W3C//DTD SVG 1.1//EN" "http://www.w3.org/Graphics/SVG/1.1/DTD/svg11.dtd">
<svg version="1.2" width="215.9mm" height="279.4mm" viewBox="0 0 21590 27940" preserveAspectRatio="xMidYMid" fill-rule="evenodd" stroke-width="28.222" stroke-linejoin="round" xmlns="http://www.w3.org/2000/svg" xmlns:ooo="http://xml.openoffice.org/svg/export" xmlns:xlink="http://www.w3.org/1999/xlink" xmlns:presentation="http://sun.com/xmlns/staroffice/presentation" xmlns:smil="http://www.w3.org/2001/SMIL20/" xmlns:anim="urn:oasis:names:tc:opendocument:xmlns:animation:1.0" xml:space="preserve">
 <defs class="ClipPathGroup">
  <clipPath id="presentation_clip_path" clipPathUnits="userSpaceOnUse">
   <rect x="0" y="0" width="21590" height="27940"/>
  </clipPath>
  <clipPath id="presentation_clip_path_shrink" clipPathUnits="userSpaceOnUse">
   <rect x="21" y="27" width="21547" height="27885"/>
  </clipPath>
 </defs>
 <defs class="TextShapeIndex">
  <g ooo:slide="id1" ooo:id-list="id3"/>
 </defs>
 <defs class="EmbeddedBulletChars">
  <g id="bullet-char-template-57356" transform="scale(0.00048828125,-0.00048828125)">
   <path d="M 580,1141 L 1163,571 580,0 -4,571 580,1141 Z"/>
  </g>
  <g id="bullet-char-template-57354" transform="scale(0.00048828125,-0.00048828125)">
   <path d="M 8,1128 L 1137,1128 1137,0 8,0 8,1128 Z"/>
  </g>
  <g id="bullet-char-template-10146" transform="scale(0.00048828125,-0.00048828125)">
   <path d="M 174,0 L 602,739 174,1481 1456,739 174,0 Z M 1358,739 L 309,1346 659,739 1358,739 Z"/>
  </g>
  <g id="bullet-char-template-10132" transform="scale(0.00048828125,-0.00048828125)">
   <path d="M 2015,739 L 1276,0 717,0 1260,543 174,543 174,936 1260,936 717,1481 1274,1481 2015,739 Z"/>
  </g>
  <g id="bullet-char-template-10007" transform="scale(0.00048828125,-0.00048828125)">
   <path d="M 0,-2 C -7,14 -16,27 -25,37 L 356,567 C 262,823 215,952 215,954 215,979 228,992 255,992 264,992 276,990 289,987 310,991 331,999 354,1012 L 381,999 492,748 772,1049 836,1024 860,1049 C 881,1039 901,1025 922,1006 886,937 835,863 770,784 769,783 710,716 594,584 L 774,223 C 774,196 753,168 711,139 L 727,119 C 717,90 699,76 672,76 641,76 570,178 457,381 L 164,-76 C 142,-110 111,-127 72,-127 30,-127 9,-110 8,-76 1,-67 -2,-52 -2,-32 -2,-23 -1,-13 0,-2 Z"/>
  </g>
  <g id="bullet-char-template-10004" transform="scale(0.00048828125,-0.00048828125)">
   <path d="M 285,-33 C 182,-33 111,30 74,156 52,228 41,333 41,471 41,549 55,616 82,672 116,743 169,778 240,778 293,778 328,747 346,684 L 369,508 C 377,444 397,411 428,410 L 1163,1116 C 1174,1127 1196,1133 1229,1133 1271,1133 1292,1118 1292,1087 L 1292,965 C 1292,929 1282,901 1262,881 L 442,47 C 390,-6 338,-33 285,-33 Z"/>
  </g>
  <g id="bullet-char-template-9679" transform="scale(0.00048828125,-0.00048828125)">
   <path d="M 813,0 C 632,0 489,54 383,161 276,268 223,411 223,592 223,773 276,916 383,1023 489,1130 632,1184 813,1184 992,1184 1136,1130 1245,1023 1353,916 1407,772 1407,592 1407,412 1353,268 1245,161 1136,54 992,0 813,0 Z"/>
  </g>
  <g id="bullet-char-template-8226" transform="scale(0.00048828125,-0.00048828125)">
   <path d="M 346,457 C 273,457 209,483 155,535 101,586 74,649 74,723 74,796 101,859 155,911 209,963 273,989 346,989 419,989 480,963 531,910 582,859 608,796 608,723 608,648 583,586 532,535 482,483 420,457 346,457 Z"/>
  </g>
  <g id="bullet-char-template-8211" transform="scale(0.00048828125,-0.00048828125)">
   <path d="M -4,459 L 1135,459 1135,606 -4,606 -4,459 Z"/>
  </g>
  <g id="bullet-char-template-61548" transform="scale(0.00048828125,-0.00048828125)">
   <path d="M 173,740 C 173,903 231,1043 346,1159 462,1274 601,1332 765,1332 928,1332 1067,1274 1183,1159 1299,1043 1357,903 1357,740 1357,577 1299,437 1183,322 1067,206 928,148 765,148 601,148 462,206 346,322 231,437 173,577 173,740 Z"/>
  </g>
 </defs>
 <defs class="TextEmbeddedBitmaps"/>
 <g>
  <g id="id2" class="Master_Slide">
   <g id="bg-id2" class="Background"/>
   <g id="bo-id2" class="BackgroundObjects"/>
  </g>
 </g>
 <g class="SlideGroup">
  <g>
   <g id="container-id1">
    <g id="id1" class="Slide" clip-path="url(#presentation_clip_path)">
     <g class="Page">
      <g class="com.sun.star.drawing.CustomShape">
       <g id="id3">
        <rect class="BoundingBox" stroke="none" fill="none" x="4047" y="10396" width="5084" height="4703"/>
        <path fill="rgb(220,0,0)" stroke="none" d="M 6588,10397 C 8028,10397 9128,11414 9128,12746 9128,14078 8028,15096 6588,15096 5148,15096 4048,14078 4048,12746 4048,11414 5148,10397 6588,10397 Z M 5035,11725 L 4982,11798 4933,11874 4887,11952 4847,12032 4810,12113 4778,12196 4751,12281 4728,12367 4709,12453 4696,12541 4687,12629 4683,12717 4684,12805 4690,12893 4700,12981 4715,13068 4735,13155 4759,13240 4788,13324 4822,13407 4860,13488 4902,13567 4949,13644 5000,13719 5054,13791 5113,13861 5175,13928 5241,13992 5310,14053 5382,14110 5458,14164 5536,14215 5617,14262 5700,14305 5786,14344 5873,14379 5963,14410 6054,14437 6146,14460 6239,14478 6334,14492 6428,14502 6524,14507 6619,14508 6715,14504 6810,14496 6904,14484 6998,14467 7091,14446 7182,14420 7272,14391 7360,14357 7446,14319 7531,14277 7612,14232 7691,14182 5035,11725 Z M 8140,13767 L 8194,13694 8243,13619 8288,13541 8329,13461 8366,13379 8398,13296 8425,13212 8448,13126 8466,13039 8480,12952 8489,12864 8493,12776 8492,12687 8486,12599 8476,12511 8461,12424 8441,12338 8417,12252 8388,12168 8354,12086 8316,12005 8274,11925 8227,11848 8176,11773 8122,11701 8063,11631 8001,11564 7935,11500 7866,11439 7794,11382 7718,11328 7640,11277 7559,11230 7476,11187 7390,11148 7303,11113 7213,11082 7122,11055 7030,11032 6936,11014 6842,11000 6747,10990 6652,10985 6556,10984 6461,10988 6366,10996 6271,11008 6178,11025 6085,11047 5994,11072 5904,11102 5815,11135 5729,11173 5645,11215 5563,11261 5484,11310 8140,13767 Z M 4048,10397 L 4048,10397 Z M 9129,15097 L 9129,15097 Z"/>
        <path fill="none" stroke="rgb(220,0,0)" d="M 6588,10397 C 8028,10397 9128,11414 9128,12746 9128,14078 8028,15096 6588,15096 5148,15096 4048,14078 4048,12746 4048,11414 5148,10397 6588,10397 Z"/>
        <path fill="none" stroke="rgb(220,0,0)" d="M 5035,11725 L 4982,11798 4933,11874 4887,11952 4847,12032 4810,12113 4778,12196 4751,12281 4728,12367 4709,12453 4696,12541 4687,12629 4683,12717 4684,12805 4690,12893 4700,12981 4715,13068 4735,13155 4759,13240 4788,13324 4822,13407 4860,13488 4902,13567 4949,13644 5000,13719 5054,13791 5113,13861 5175,13928 5241,13992 5310,14053 5382,14110 5458,14164 5536,14215 5617,14262 5700,14305 5786,14344 5873,14379 5963,14410 6054,14437 6146,14460 6239,14478 6334,14492 6428,14502 6524,14507 6619,14508 6715,14504 6810,14496 6904,14484 6998,14467 7091,14446 7182,14420 7272,14391 7360,14357 7446,14319 7531,14277 7612,14232 7691,14182 5035,11725 Z"/>
        <path fill="none" stroke="rgb(220,0,0)" d="M 8140,13767 L 8194,13694 8243,13619 8288,13541 8329,13461 8366,13379 8398,13296 8425,13212 8448,13126 8466,13039 8480,12952 8489,12864 8493,12776 8492,12687 8486,12599 8476,12511 8461,12424 8441,12338 8417,12252 8388,12168 8354,12086 8316,12005 8274,11925 8227,11848 8176,11773 8122,11701 8063,11631 8001,11564 7935,11500 7866,11439 7794,11382 7718,11328 7640,11277 7559,11230 7476,11187 7390,11148 7303,11113 7213,11082 7122,11055 7030,11032 6936,11014 6842,11000 6747,10990 6652,10985 6556,10984 6461,10988 6366,10996 6271,11008 6178,11025 6085,11047 5994,11072 5904,11102 5815,11135 5729,11173 5645,11215 5563,11261 5484,11310 8140,13767 Z"/>
        <path fill="none" stroke="rgb(220,0,0)" d="M 4048,10397 L 4048,10397 Z"/>
        <path fill="none" stroke="rgb(220,0,0)" d="M 9129,15097 L 9129,15097 Z"/>
       </g>
      </g>
     </g>
    </g>
   </g>
  </g>
 </g>
</svg>