<?xml version="1.0" encoding="UTF-8"?>
<!DOCTYPE svg PUBLIC "-//W3C//DTD SVG 1.1//EN" "http://www.w3.org/Graphics/SVG/1.1/DTD/svg11.dtd">
<svg version="1.2" width="215.9mm" height="279.4mm" viewBox="0 0 21590 27940" preserveAspectRatio="xMidYMid" fill-rule="evenodd" stroke-width="28.222" stroke-linejoin="round" xmlns="http://www.w3.org/2000/svg" xmlns:ooo="http://xml.openoffice.org/svg/export" xmlns:xlink="http://www.w3.org/1999/xlink" xmlns:presentation="http://sun.com/xmlns/staroffice/presentation" xmlns:smil="http://www.w3.org/2001/SMIL20/" xmlns:anim="urn:oasis:names:tc:opendocument:xmlns:animation:1.0" xml:space="preserve">
 <defs class="ClipPathGroup">
  <clipPath id="presentation_clip_path" clipPathUnits="userSpaceOnUse">
   <rect x="0" y="0" width="21590" height="27940"/>
  </clipPath>
  <clipPath id="presentation_clip_path_shrink" clipPathUnits="userSpaceOnUse">
   <rect x="21" y="27" width="21547" height="27885"/>
  </clipPath>
 </defs>
 <defs class="TextShapeIndex">
  <g ooo:slide="id1" ooo:id-list="id3"/>
 </defs>
 <defs class="EmbeddedBulletChars">
  <g id="bullet-char-template-57356" transform="scale(0.00048828125,-0.00048828125)">
   <path d="M 580,1141 L 1163,571 580,0 -4,571 580,1141 Z"/>
  </g>
  <g id="bullet-char-template-57354" transform="scale(0.00048828125,-0.00048828125)">
   <path d="M 8,1128 L 1137,1128 1137,0 8,0 8,1128 Z"/>
  </g>
  <g id="bullet-char-template-10146" transform="scale(0.00048828125,-0.00048828125)">
   <path d="M 174,0 L 602,739 174,1481 1456,739 174,0 Z M 1358,739 L 309,1346 659,739 1358,739 Z"/>
  </g>
  <g id="bullet-char-template-10132" transform="scale(0.00048828125,-0.00048828125)">
   <path d="M 2015,739 L 1276,0 717,0 1260,543 174,543 174,936 1260,936 717,1481 1274,1481 2015,739 Z"/>
  </g>
  <g id="bullet-char-template-10007" transform="scale(0.00048828125,-0.00048828125)">
   <path d="M 0,-2 C -7,14 -16,27 -25,37 L 356,567 C 262,823 215,952 215,954 215,979 228,992 255,992 264,992 276,990 289,987 310,991 331,999 354,1012 L 381,999 492,748 772,1049 836,1024 860,1049 C 881,1039 901,1025 922,1006 886,937 835,863 770,784 769,783 710,716 594,584 L 774,223 C 774,196 753,168 711,139 L 727,119 C 717,90 699,76 672,76 641,76 570,178 457,381 L 164,-76 C 142,-110 111,-127 72,-127 30,-127 9,-110 8,-76 1,-67 -2,-52 -2,-32 -2,-23 -1,-13 0,-2 Z"/>
  </g>
  <g id="bullet-char-template-10004" transform="scale(0.00048828125,-0.00048828125)">
   <path d="M 285,-33 C 182,-33 111,30 74,156 52,228 41,333 41,471 41,549 55,616 82,672 116,743 169,778 240,778 293,778 328,747 346,684 L 369,508 C 377,444 397,411 428,410 L 1163,1116 C 1174,1127 1196,1133 1229,1133 1271,1133 1292,1118 1292,1087 L 1292,965 C 1292,929 1282,901 1262,881 L 442,47 C 390,-6 338,-33 285,-33 Z"/>
  </g>
  <g id="bullet-char-template-9679" transform="scale(0.00048828125,-0.00048828125)">
   <path d="M 813,0 C 632,0 489,54 383,161 276,268 223,411 223,592 223,773 276,916 383,1023 489,1130 632,1184 813,1184 992,1184 1136,1130 1245,1023 1353,916 1407,772 1407,592 1407,412 1353,268 1245,161 1136,54 992,0 813,0 Z"/>
  </g>
  <g id="bullet-char-template-8226" transform="scale(0.00048828125,-0.00048828125)">
   <path d="M 346,457 C 273,457 209,483 155,535 101,586 74,649 74,723 74,796 101,859 155,911 209,963 273,989 346,989 419,989 480,963 531,910 582,859 608,796 608,723 608,648 583,586 532,535 482,483 420,457 346,457 Z"/>
  </g>
  <g id="bullet-char-template-8211" transform="scale(0.00048828125,-0.00048828125)">
   <path d="M -4,459 L 1135,459 1135,606 -4,606 -4,459 Z"/>
  </g>
  <g id="bullet-char-template-61548" transform="scale(0.00048828125,-0.00048828125)">
   <path d="M 173,740 C 173,903 231,1043 346,1159 462,1274 601,1332 765,1332 928,1332 1067,1274 1183,1159 1299,1043 1357,903 1357,740 1357,577 1299,437 1183,322 1067,206 928,148 765,148 601,148 462,206 346,322 231,437 173,577 173,740 Z"/>
  </g>
 </defs>
 <defs class="TextEmbeddedBitmaps"/>
 <g>
  <g id="id2" class="Master_Slide">
   <g id="bg-id2" class="Background"/>
   <g id="bo-id2" class="BackgroundObjects"/>
  </g>
 </g>
 <g class="SlideGroup">
  <g>
   <g id="container-id1">
    <g id="id1" class="Slide" clip-path="url(#presentation_clip_path)">
     <g class="Page">
      <g class="com.sun.star.drawing.CustomShape">
       <g id="id3">
        <rect class="BoundingBox" stroke="none" fill="none" x="576" y="998" width="20024" height="25945"/>
        <defs>
         <mask id="mask1">
          <g>
           <defs>
            <linearGradient id="gradient1" x1="10376" y1="986" x2="10376" y2="26954" gradientUnits="userSpaceOnUse">
             <stop offset="0.5" style="stop-color:rgb(163,163,163)"/>
             <stop offset="0.5" style="stop-color:rgb(163,163,163)"/>
             <stop offset="1" style="stop-color:rgb(163,163,163)"/>
             <stop offset="1" style="stop-color:rgb(163,163,163)"/>
            </linearGradient>
           </defs>
           <path style="fill:url(#gradient1)" d="M 564,986 L 20188,986 20188,26954 564,26954 564,986 Z"/>
          </g>
         </mask>
        </defs>
        <g style="mask:url(#mask1)">
         <path fill="rgb(128,128,128)" stroke="none" d="M 10383,26933 C 10136,24326 9416,21106 7652,19062 4712,15687 3005,16072 1090,11573 29,8582 389,3344 4333,1375 8391,-208 10004,3675 10383,4468 10762,3675 12356,-208 16433,1375 20378,3344 20719,8582 19657,11573 17741,16072 16034,15687 13095,19062 11332,21106 10611,24326 10383,26933 L 10383,26933 Z M 577,1000 L 577,1000 Z M 20168,26941 L 20168,26941 Z"/>
         <defs>
          <mask id="mask2">
           <g>
            <defs>
             <linearGradient id="gradient2" x1="10376" y1="986" x2="10376" y2="26946" gradientUnits="userSpaceOnUse">
              <stop offset="0.5" style="stop-color:rgb(204,204,204)"/>
              <stop offset="0.5" style="stop-color:rgb(204,204,204)"/>
              <stop offset="1" style="stop-color:rgb(204,204,204)"/>
              <stop offset="1" style="stop-color:rgb(204,204,204)"/>
             </linearGradient>
            </defs>
            <path style="fill:url(#gradient2)" d="M 564,986 L 20188,986 20188,26946 564,26946 564,986 Z"/>
           </g>
          </mask>
         </defs>
         <g style="mask:url(#mask2)">
          <path fill="none" stroke="rgb(128,128,128)" d="M 10383,26933 C 10136,24326 9416,21106 7652,19062 4712,15687 3005,16072 1090,11573 29,8582 389,3344 4333,1375 8391,-208 10004,3675 10383,4468 10762,3675 12356,-208 16433,1375 20378,3344 20719,8582 19657,11573 17741,16072 16034,15687 13095,19062 11332,21106 10611,24326 10383,26933 Z"/>
         </g>
         <defs>
          <mask id="mask3">
           <g>
            <defs>
             <linearGradient id="gradient3" x1="577" y1="987" x2="577" y2="1013" gradientUnits="userSpaceOnUse">
              <stop offset="0.5" style="stop-color:rgb(204,204,204)"/>
              <stop offset="0.5" style="stop-color:rgb(204,204,204)"/>
              <stop offset="1" style="stop-color:rgb(204,204,204)"/>
              <stop offset="1" style="stop-color:rgb(204,204,204)"/>
             </linearGradient>
            </defs>
            <path style="fill:url(#gradient3)" d="M 564,987 L 590,987 590,1013 564,1013 564,987 Z"/>
           </g>
          </mask>
         </defs>
         <g style="mask:url(#mask3)">
          <path fill="none" stroke="rgb(128,128,128)" d="M 577,1000 L 577,1000 Z"/>
         </g>
         <defs>
          <mask id="mask4">
           <g>
            <defs>
             <linearGradient id="gradient4" x1="20168" y1="26928" x2="20168" y2="26954" gradientUnits="userSpaceOnUse">
              <stop offset="0.5" style="stop-color:rgb(204,204,204)"/>
              <stop offset="0.5" style="stop-color:rgb(204,204,204)"/>
              <stop offset="1" style="stop-color:rgb(204,204,204)"/>
              <stop offset="1" style="stop-color:rgb(204,204,204)"/>
             </linearGradient>
            </defs>
            <path style="fill:url(#gradient4)" d="M 20155,26928 L 20181,26928 20181,26954 20155,26954 20155,26928 Z"/>
           </g>
          </mask>
         </defs>
         <g style="mask:url(#mask4)">
          <path fill="none" stroke="rgb(128,128,128)" d="M 20168,26941 L 20168,26941 Z"/>
         </g>
        </g>
        <path fill="rgb(255,255,254)" stroke="none" d="M 10806,26933 C 10559,24326 9839,21106 8075,19062 5135,15687 3428,16072 1513,11573 452,8582 812,3344 4756,1375 8814,-208 10427,3675 10806,4468 11185,3675 12779,-208 16856,1375 20801,3344 21142,8582 20080,11573 18164,16072 16457,15687 13518,19062 11755,21106 11034,24326 10806,26933 L 10806,26933 Z M 1000,1000 L 1000,1000 Z M 20591,26941 L 20591,26941 Z"/>
        <defs>
         <mask id="mask5">
          <g>
           <defs>
            <linearGradient id="gradient5" x1="10799" y1="986" x2="10799" y2="26946" gradientUnits="userSpaceOnUse">
             <stop offset="0.5" style="stop-color:rgb(204,204,204)"/>
             <stop offset="0.5" style="stop-color:rgb(204,204,204)"/>
             <stop offset="1" style="stop-color:rgb(204,204,204)"/>
             <stop offset="1" style="stop-color:rgb(204,204,204)"/>
            </linearGradient>
           </defs>
           <path style="fill:url(#gradient5)" d="M 987,986 L 20611,986 20611,26946 987,26946 987,986 Z"/>
          </g>
         </mask>
        </defs>
        <g style="mask:url(#mask5)">
         <path fill="none" stroke="rgb(31,0,31)" d="M 10806,26933 C 10559,24326 9839,21106 8075,19062 5135,15687 3428,16072 1513,11573 452,8582 812,3344 4756,1375 8814,-208 10427,3675 10806,4468 11185,3675 12779,-208 16856,1375 20801,3344 21142,8582 20080,11573 18164,16072 16457,15687 13518,19062 11755,21106 11034,24326 10806,26933 Z"/>
        </g>
        <defs>
         <mask id="mask6">
          <g>
           <defs>
            <linearGradient id="gradient6" x1="1000" y1="987" x2="1000" y2="1013" gradientUnits="userSpaceOnUse">
             <stop offset="0.5" style="stop-color:rgb(204,204,204)"/>
             <stop offset="0.5" style="stop-color:rgb(204,204,204)"/>
             <stop offset="1" style="stop-color:rgb(204,204,204)"/>
             <stop offset="1" style="stop-color:rgb(204,204,204)"/>
            </linearGradient>
           </defs>
           <path style="fill:url(#gradient6)" d="M 987,987 L 1013,987 1013,1013 987,1013 987,987 Z"/>
          </g>
         </mask>
        </defs>
        <g style="mask:url(#mask6)">
         <path fill="none" stroke="rgb(31,0,31)" d="M 1000,1000 L 1000,1000 Z"/>
        </g>
        <defs>
         <mask id="mask7">
          <g>
           <defs>
            <linearGradient id="gradient7" x1="20591" y1="26928" x2="20591" y2="26954" gradientUnits="userSpaceOnUse">
             <stop offset="0.5" style="stop-color:rgb(204,204,204)"/>
             <stop offset="0.5" style="stop-color:rgb(204,204,204)"/>
             <stop offset="1" style="stop-color:rgb(204,204,204)"/>
             <stop offset="1" style="stop-color:rgb(204,204,204)"/>
            </linearGradient>
           </defs>
           <path style="fill:url(#gradient7)" d="M 20578,26928 L 20604,26928 20604,26954 20578,26954 20578,26928 Z"/>
          </g>
         </mask>
        </defs>
        <g style="mask:url(#mask7)">
         <path fill="none" stroke="rgb(31,0,31)" d="M 20591,26941 L 20591,26941 Z"/>
        </g>
       </g>
      </g>
     </g>
    </g>
   </g>
  </g>
 </g>
</svg>